<?xml version="1.0" standalone="no"?>
<!DOCTYPE svg PUBLIC "-//W3C//DTD SVG 20010904//EN"
 "http://www.w3.org/TR/2001/REC-SVG-20010904/DTD/svg10.dtd">
<svg version="1.0" xmlns="http://www.w3.org/2000/svg"
 width="225.000000pt" height="225.000000pt" viewBox="0 0 225.000000 225.000000"
 preserveAspectRatio="xMidYMid meet">

<g transform="translate(0.000000,225.000000) scale(0.100000,-0.100000)"
fill="#000000" stroke="none">
<path d="M1426 1923 c-19 -38 -48 -95 -65 -128 l-31 -60 0 -562 0 -562 61
-100 c33 -55 64 -103 70 -106 5 -4 9 291 9 789 0 438 -2 796 -5 796 -3 0 -20
-30 -39 -67z"/>
<path d="M820 1126 c0 -453 4 -766 9 -766 5 0 52 51 105 114 l96 113 0 537 0
537 -96 112 c-52 62 -99 114 -105 115 -5 2 -9 -284 -9 -762z"/>
<path d="M1121 1056 c-1 -440 1 -797 3 -795 2 2 27 60 55 129 l51 124 0 562 0
561 -54 109 -55 109 0 -799z"/>
<path d="M450 1125 c0 -382 3 -695 8 -695 4 0 69 48 145 106 l137 105 0 479 0
480 -137 110 c-76 60 -141 110 -145 110 -5 0 -8 -313 -8 -695z"/>
<path d="M1668 1709 l-108 -101 0 -485 0 -485 108 -103 107 -103 3 344 c1 189
1 499 0 689 l-3 345 -107 -101z"/>
</g>
</svg>
